<svg width="50" height="37" viewBox="0 0 50 37" fill="none" xmlns="http://www.w3.org/2000/svg">
<path d="M24.3486 9.53905L25.2904 9.26487L26.2202 8.9311L27.15 8.59732L28.0798 8.25162L29.0573 8.03705L29.9871 7.70327L30.8692 7.23837L31.8229 6.97612L32.7646 6.65426L33.6944 6.35624L34.6004 5.93902L35.5302 5.61717L36.4957 5.37876L37.4017 4.96153L38.3434 4.67544L39.309 4.44895L40.215 4.03173L41.1567 3.74563L42.0746 3.32841L43.0521 3.13768L43.9938 2.82775L44.9355 2.50589L45.8296 2.06483L46.8071 1.82641L47.7488 1.51648L48.7024 1.20654L49.2389 2.06483L48.8216 2.98271L48.2971 3.85292L47.713 4.66352L47.2124 5.54564L46.7713 6.45161L46.2945 7.33373L45.7223 8.16818L45.2693 9.06222L44.7567 9.93243L44.2203 10.7788L43.7554 11.6848L43.207 12.5311L42.6587 13.3775L42.2653 14.3073L41.7646 15.1775L41.1925 16.0239L40.6322 16.8583L40.203 17.7762L39.607 18.5987L39.154 19.4928L38.6653 20.3749L38.2123 21.2689L37.5924 22.0676L37.1275 22.9736L36.5911 23.8319L36.162 24.7378L35.5182 25.5365L35.0295 26.4186L34.6004 27.3365L34.1116 28.2186L33.5394 29.065L33.0626 29.959L32.4904 30.7935L32.109 31.7471L31.5248 32.5697L30.9884 33.4399L30.452 34.2981L30.0348 35.2399L29.4626 36.0862L28.2467 36.3366L27.5791 35.6094L26.8043 34.9895L26.0056 34.4054L25.3619 33.6544L24.6347 32.9869L23.991 32.2359L23.3592 31.473L22.7036 30.7339L22.1195 29.9352L21.3923 29.2557L20.8797 28.3974L20.2599 27.6345L19.5566 28.3021L18.7936 28.8981L18.0665 29.5418L17.3512 30.2094L16.5883 30.8054L15.8254 31.4134L15.0625 32.0452L14.4188 32.6769L14.2996 31.7591L14.1804 30.7696L14.1327 29.7802L14.0492 28.7789L13.93 27.7895L13.9062 26.8001L13.8585 25.7988L13.6916 24.8093V23.7961L13.5009 22.8067L12.4996 22.6756L11.4863 22.5683L10.4611 22.4491L9.43596 22.3537L8.43463 22.1153L7.4929 21.6981L6.52733 21.3762L5.59753 20.9351L4.63196 20.5894L3.77368 20.0292L2.97499 19.3974L2.20016 18.7298L1.49684 18.0146L1.29419 17.2159L1.83062 16.5484L2.79619 16.1907L3.76175 15.9046L4.75116 15.6305L5.74058 15.3682L6.70614 15.0702L7.64787 14.6768L8.60152 14.3192L9.62669 14.1523L10.5923 13.8305L11.5459 13.4371L12.5234 13.151L13.5009 12.853L14.4545 12.4954L15.4082 12.102L16.3976 11.8278L17.3751 11.5059L18.3526 11.2199L19.3658 10.9934" stroke="#333333" stroke-linecap="round" stroke-linejoin="round"/>
<path d="M13.5132 22.7947C17.1609 22.8186 25.6245 17.192 25.6245 17.192" stroke="#333333" stroke-linecap="round" stroke-linejoin="round"/>
<path d="M31.8707 9.24101L31.7634 8.72843L31.6561 8.21584L31.5012 7.71518L31.1793 7.30988L30.8932 6.85689L30.5118 6.48735L30.1541 6.09397L29.6892 5.85556L29.2243 5.61715L28.7118 5.53371L28.1992 5.48602H27.6747L27.174 5.66483L26.6614 5.79596L26.2323 6.11781L25.7793 6.39199L25.3978 6.76153L25.0283 7.14299L24.6945 7.56021L24.3727 7.98935L24.1223 8.46617L23.9554 7.95359L23.7289 7.46484L23.5501 6.95226L23.2521 6.51119L22.9064 6.11781L22.6203 5.67675L22.215 5.34298L21.762 5.09264L21.3091 4.83039L20.8084 4.71118L20.2958 4.65158H19.7832L19.2706 4.74695L18.77 4.90191L18.2812 5.10456L17.8998 5.48602L17.4825 5.80788L17.1726 6.20126L16.8865 6.60656L16.6481 7.04762L16.5051 7.53637L16.362 8.02511L16.2786 8.5377L16.3382 9.05028V9.56287L16.4335 10.0635L16.5885 10.5404L16.9104 11.4106H16.8984L17.1011 11.9112L17.411 12.3404L17.6256 12.8291L17.9117 13.2583L18.1739 13.7112L18.5196 14.1046L18.8653 14.498L19.1991 14.8914L19.5448 15.2848L19.9024 15.6662L20.272 16.0358L20.6653 16.3695L21.0706 16.6914L21.4521 17.049L21.8574 17.3828L22.2508 17.7166L22.668 18.0265L23.0614 18.3603L23.5382 18.1695L23.9674 17.8835L24.4561 17.7404L24.8733 17.4424L25.3382 17.2397L25.7793 16.9894L26.2084 16.7152L26.6614 16.4768L27.0548 16.155L27.4601 15.845L27.9012 15.5947L28.2945 15.2609L28.6641 14.9152L29.0455 14.5814L29.4628 14.2715L29.7489 13.8424L30.1422 13.5086L30.4402 13.0914L30.7263 12.6622L31.0005 12.2212L31.2508 11.7682L31.4773 11.3033L31.6323 10.8026L31.7396 10.29L31.7754 9.76552L31.8111 9.24101H31.8707Z" fill="#333333"/>
<path d="M25.6123 17.1801L26.4587 16.6795L27.305 16.1669L28.1514 15.6662L28.9739 15.1179L29.8203 14.6053L30.6428 14.0688L31.5249 13.6159L32.3474 13.0794L33.1461 12.4953L34.0044 11.9947L34.815 11.4225L35.6614 10.886L36.4839 10.3735L37.3303 9.86088L38.1528 9.32445L38.9753 8.78802L39.7501 8.19199L40.5965 7.67941L41.4071 7.14298L42.2177 6.59463L43.0164 6.02244L43.8151 5.45025L44.6376 4.91382L45.4482 4.3774L46.235 3.80521L47.0217 3.23302L47.8085 2.66083L48.5714 2.07672" stroke="#333333" stroke-linecap="round" stroke-linejoin="round"/>
<path d="M20.2481 27.6345L19.7236 26.8358L19.2706 26.0014L18.9487 25.1074L18.7222 24.1895L18.6746 23.2358L18.8176 22.306L19.1991 21.4358L19.8189 20.7206L20.5938 20.1841" stroke="#333333" stroke-linecap="round" stroke-linejoin="round"/>
<path d="M9.78193 26.4544L2.40308 30.6385" stroke="#333333" stroke-linecap="round" stroke-linejoin="round"/>
<path d="M9.78206 31.2226L6.08667 33.3087" stroke="#333333" stroke-linecap="round" stroke-linejoin="round"/>
</svg>
