<svg width="48" height="49" viewBox="0 0 48 49" fill="none" xmlns="http://www.w3.org/2000/svg">
<g clip-path="url(#clip0_547_6760)">
<path d="M2.40805 8.6242L2.3487 8.9666L2.19805 9.32726V9.71075L2.24827 10.1034L2.06109 10.464L2.11587 10.8567L2.03826 11.231L1.99717 11.6099L1.89674 11.9843L1.83282 12.3632L1.93782 12.7558L1.77804 13.1256L1.91956 13.5182L1.7963 13.8926L1.72325 14.2715L1.6913 14.6505L1.75978 15.0339L1.74151 15.4129L1.7826 15.7964L1.74608 16.1753L1.73695 16.5542L1.78717 16.9377L1.65021 17.3212L1.65934 17.7047V18.0882L1.82826 18.4671L1.81456 18.8506V19.2295L1.70043 19.6175L1.71412 20.001L1.80999 20.38L1.85108 20.7589L1.96522 21.1332L1.98348 21.5167L1.90587 21.9093L2.04739 22.2791V22.6626L2.12044 23.0415L2.0337 23.4387L2.12044 23.8131L2.14783 24.1966L2.35784 24.5527L2.26196 24.959L2.41262 25.3242V25.7168L2.55414 26.0821L2.57241 26.4701L2.64089 26.849L2.84176 27.2006L2.78241 27.6115L2.89198 27.9812L2.98785 28.351L3.20699 28.6889L3.2846 29.0632L3.37591 29.433L3.4946 29.7983L3.62243 30.1589L3.63157 30.5561L3.83701 30.8894L3.88722 31.2774L4.09723 31.6107L4.20223 31.9805L4.35289 32.332L4.42137 32.7155L4.54007 33.0807L4.77747 33.3957L4.88703 33.7655L5.13356 34.0714L5.23856 34.4412L5.4714 34.7516L5.63575 35.094L5.72706 35.4775L5.95989 35.7834L6.12881 36.1258L6.3662 36.4271L6.48947 36.7969L6.70404 37.1165L7.00535 37.3767L7.12405 37.7556L7.33862 38.0706L7.61254 38.3446L7.85907 38.6368L8.03712 38.9792L8.23343 39.3124L8.49365 39.5955L8.81323 39.8237L8.95019 40.2118L9.21954 40.4857L9.53912 40.7094L9.77195 41.0153L10.0367 41.2892L10.2833 41.5814L10.5435 41.8599L10.8813 42.0562L11.21 42.2616L11.4748 42.5356L11.7168 42.8369L12.0409 43.0423L12.3559 43.2569L12.6846 43.4532L12.9312 43.7636L13.2964 43.9052L13.616 44.106L13.9173 44.3434L14.2642 44.5032L14.5245 44.8091L14.8943 44.9324L15.1727 45.2154L15.506 45.4026L15.8667 45.5395L16.2045 45.713L16.5971 45.7769L16.8984 46.0235L17.2774 46.1056L17.5969 46.3202L17.9439 46.48L18.3183 46.5713L18.6241 46.8361L18.9894 46.9457L19.3683 47.0187L19.7153 47.1785L20.0759 47.3018L20.4685 47.3155L20.8109 47.4889L21.1625 47.6487H21.5551L21.8884 47.8816L22.2855 47.8679L22.6599 47.9409L23.0069 48.1327L23.3949 48.1555L23.7647 48.2696L23.9473 48.2148L24.1071 48.1418L24.4952 48.1327H24.8878L25.2667 48.0687L25.6 47.8177L25.9789 47.7629L26.3807 47.7766L26.7504 47.6761L27.0746 47.4113L27.4672 47.3931L27.8416 47.3063L28.2068 47.1922L28.5538 47.0278L28.9327 46.9502L29.2888 46.8041L29.6403 46.6581L29.9644 46.4344L30.3297 46.3202L30.6629 46.1239L31.0327 46.0189L31.3432 45.7815L31.7358 45.713L32.0234 45.4345L32.3613 45.2565L32.7493 45.1698L33.1008 45.0145L33.4295 44.8182L33.6852 44.5078L34.0185 44.3252L34.3517 44.138L34.6804 43.9417L34.9818 43.7088L35.3424 43.5536L35.5844 43.2386L35.9542 43.0925L36.2327 42.8277L36.5659 42.6269L36.817 42.3301L37.0909 42.0653L37.4288 41.8644L37.6616 41.554L37.9675 41.3212L38.1181 40.9331L38.4468 40.7231L38.7208 40.4583L38.9308 40.1342L39.2047 39.8694L39.4375 39.5681L39.7069 39.2942L39.9397 38.9928L40.1999 38.7098L40.3369 38.34L40.5697 38.0387L40.8756 37.7876L41.0034 37.4132L41.2545 37.1211L41.5239 36.838L41.6015 36.4408L41.8526 36.1486L42.1083 35.8565L42.1767 35.4593L42.3183 35.1077L42.5967 34.8247L42.6926 34.4458L42.8661 34.1079L43.0715 33.7838L43.14 33.3957L43.2861 33.0442L43.5737 32.752L43.7153 32.3959L43.7609 32.0033L43.8705 31.6381L44.0029 31.282L44.2037 30.9487L44.2357 30.5561L44.4046 30.2091L44.4685 29.8302L44.5872 29.4695L44.8064 29.1363L44.9068 28.7665L44.9251 28.3739L45.1031 28.0223L45.1351 27.6343L45.2538 27.2691L45.2264 26.8719L45.4044 26.5158L45.3633 26.1186L45.4957 25.7534L45.5597 25.3744L45.651 25.0001V24.612L45.7651 24.2422L45.7423 23.8542L45.861 23.4844L45.9934 23.1146L45.9386 22.722L45.9477 22.3385L46.0299 21.9641L46.0071 21.5761L46.1942 21.2063V20.8182L46.1075 20.4256V20.0421L46.1486 19.6586L46.2855 19.2797L46.1851 18.8917L46.2353 18.5082V18.1247L46.3312 17.7412L46.1942 17.3577L46.3586 16.9742L46.3084 16.5907L46.3358 16.2072V15.8237L46.2536 15.4448L46.3221 15.0613L46.3084 14.6778L46.2399 14.2989L46.1349 13.9246L46.1988 13.5411L46.1577 13.1622L46.1805 12.7787L46.0984 12.4043L46.0481 12.0254L46.0299 11.6419L45.9203 11.2675L45.8564 10.8932L45.9431 10.5006L45.8153 10.1308L45.7286 9.76097V9.37748L45.6236 9.01226L45.6007 8.68355L45.2675 8.6379L44.8931 8.55116L44.5142 8.5192L44.1261 8.57855L43.7563 8.42789L43.3729 8.4142L42.9985 8.35028H42.615L42.2406 8.29093L41.8617 8.24528L41.4782 8.23158L41.1039 8.15397L40.7341 8.05354L40.3552 8.01245L39.9808 7.93484L39.6019 7.87549L39.2458 7.70657L38.8714 7.63352L38.4697 7.7157L38.1181 7.53765L37.7575 7.41439L37.3786 7.3733H36.9859L36.6435 7.17699H36.2509L35.872 7.10851L35.525 6.92133L35.1415 6.87568L34.7991 6.68393L34.4385 6.5561L34.023 6.60632L33.708 6.32784L33.3382 6.2274L32.9593 6.16348L32.5713 6.11327L32.2197 5.96261L31.9047 5.71152L31.5167 5.65217L31.124 5.60195L30.809 5.36455L30.421 5.30063L30.1151 5.03584L29.759 4.89888L29.4257 4.70714L29.0468 4.61583L28.709 4.43778L28.3757 4.25061L28.0333 4.08169L27.6498 3.99038L27.3439 3.74842L26.997 3.58863L26.6409 3.44254L26.2711 3.31015L26.02 2.98144L25.6365 2.87644L25.358 2.59795L25.043 2.38338L24.7143 2.18707L24.4176 1.94511L24.0478 1.83554L23.7465 2.04098L23.3721 2.16425L23.0845 2.42447L22.8106 2.70752L22.4773 2.89927L22.1029 3.02253L21.7788 3.22797L21.4592 3.44254L21.0894 3.5658L20.7333 3.71646L20.3864 3.88081L20.0714 4.09995L19.7472 4.30996L19.3683 4.40583L19.0168 4.56105L18.6835 4.74823L18.3365 4.90801L18.0261 5.14998L17.6837 5.32803L17.2956 5.39194L16.9213 5.48325L16.5606 5.61564L16.241 5.85304L15.8712 5.95804L15.4923 6.03109L15.1545 6.2274L14.7847 6.32784L14.4377 6.49675L14.0451 6.52415L13.6616 6.5835L13.3329 6.82089L12.954 6.89394L12.5751 6.96242L12.2235 7.1359L11.8492 7.22264L11.4611 7.25003L11.1142 7.44634L10.7124 7.40982L10.3654 7.61526H9.97282L9.5802 7.597L9.2378 7.8344L8.83605 7.76135L8.47996 7.93484L8.1056 8.00332L7.72211 8.03527L7.33862 8.05354L6.96426 8.11288L6.58078 8.12201L6.20642 8.20419L5.84119 8.35941L5.45314 8.34115L5.07878 8.44615L4.68616 8.33659L4.31637 8.45985L3.93744 8.51463H3.55852L3.17503 8.49637L2.79611 8.48268L2.45827 8.6242H2.40805Z" stroke="#333333" stroke-width="1.00071" stroke-miterlimit="10"/>
<path d="M21.925 16.6178L21.9478 16.2298L22.0574 15.8554L22.2537 15.513L22.5094 15.2163L22.8244 14.9789L23.1759 14.81L23.5457 14.6821L23.9337 14.6502L24.025 14.6593L24.3994 14.7095L24.7601 14.8282L25.1025 15.0017L25.3764 15.2619L25.632 15.5404L25.8238 15.8737L25.906 16.2435L25.9744 16.6178L25.9653 16.9968L25.9607 17.3757L25.9699 17.7546L25.9653 18.1335L25.9562 18.5125L25.9607 18.8914L25.9471 19.2703L25.9607 19.6492L25.9471 20.0327V20.4162L25.9607 20.7951L25.906 21.1832L25.7964 21.553L25.6138 21.8999L25.3627 22.2012L25.0522 22.4432L24.7007 22.6121L24.3264 22.7354L23.9337 22.7719L23.5502 22.708L23.1759 22.603L22.8152 22.4432L22.5139 22.1921L22.2583 21.8999L22.0574 21.5621L21.9524 21.1832L21.9113 20.7951L21.9067 20.4162L21.9113 20.0373L21.9022 19.6584L21.925 19.2794L21.9113 18.9005L21.9204 18.5216L21.9159 18.1427V17.7637L21.9022 17.3848V17.0013L21.925 16.6178Z" fill="#333333"/>
<path d="M8.89544 22.7401L8.64891 22.4388L8.46173 22.1009L8.35216 21.7266L8.32477 21.3431L8.34303 20.955L8.47542 20.5944L8.64891 20.2474L8.9137 19.9644L8.97761 19.8913L9.28349 19.6585L9.63046 19.4987L10.0002 19.4074L10.3837 19.3846L10.7627 19.4393L11.1325 19.5352L11.4703 19.7133L11.767 19.9598L12.0455 20.2246L12.3194 20.4939L12.6025 20.7542L12.8673 21.0372L13.1549 21.2929L13.4379 21.5577L13.6936 21.8407L13.9904 22.0964L14.2643 22.3703L14.5382 22.6442L14.8258 22.909L15.0723 23.2057L15.2504 23.5481L15.3737 23.9134L15.3965 24.3014L15.3737 24.6849L15.2458 25.0501L15.0586 25.3834L14.8212 25.6847L14.5062 25.9221L14.1593 26.1093L13.7804 26.2234L13.3877 26.2691L12.9951 26.228L12.6162 26.1093L12.2601 25.9404L11.9496 25.6939L11.6894 25.4062L11.4109 25.1414L11.1188 24.8904L10.8494 24.6119L10.5709 24.3516L10.2879 24.0869L10.0185 23.8084L9.74459 23.539L9.46154 23.2742L9.18305 23.0003L8.9 22.7355L8.89544 22.7401Z" fill="#333333"/>
<path d="M13.3329 31.6105L13.5201 31.2589L13.7393 30.9394L13.9812 30.638L14.2323 30.3459L14.4788 30.0537L14.7071 29.7387L14.9536 29.4419L15.2732 29.2137L15.5517 28.9489L15.8165 28.6658L16.1178 28.4284L16.4237 28.1956L16.725 27.9491L17.0217 27.7025L17.3596 27.5108L17.6883 27.3099L18.0307 27.1319L18.3913 26.9903L18.7109 26.7621L19.0898 26.6662L19.4277 26.4699L19.8112 26.3923L20.1627 26.2325L20.5234 26.0955L20.8977 26.0042L21.2766 25.9175L21.6601 25.8581L22.0436 25.817L22.418 25.7166L22.806 25.6846L23.1895 25.6801L23.5776 25.6664L23.9656 25.6618L24.3491 25.6344L24.7326 25.712L25.1207 25.6938L25.5087 25.7166L25.8831 25.8399L26.2757 25.8307L26.65 25.9266L27.0198 26.027L27.3988 26.1047L27.7686 26.2279L28.1247 26.374L28.4944 26.4881L28.8368 26.6708L29.2066 26.7895L29.5399 26.9903L29.8777 27.1684L30.2338 27.3236L30.5488 27.5473L30.8821 27.7391L31.2108 27.9399L31.5395 28.1499L31.8363 28.3919L32.1148 28.6658L32.4298 28.8895L32.7128 29.1589L32.9274 29.4876L33.2013 29.7569L33.5026 30.008L33.7218 30.3276L33.9637 30.6289L34.2011 30.9302L34.3883 31.2726L34.5892 31.5968L34.2103 31.6105L33.8313 31.6059L33.457 31.6242L33.078 31.5648L32.6991 31.6013L32.3248 31.5831L31.9458 31.5922L31.5715 31.5968L31.1926 31.6242L30.8136 31.6287L30.4393 31.6242L30.0604 31.6196L29.6814 31.5739L29.3025 31.5968L28.9236 31.6424L28.5447 31.5785L28.1657 31.6242L27.7868 31.6105L27.4079 31.6059L27.029 31.5785L26.65 31.5602L26.2711 31.6242L25.8922 31.5648L25.5133 31.6424L25.1344 31.5968L24.7554 31.5694L24.3765 31.5648L23.993 31.6013H23.6141L23.2352 31.6242L22.8562 31.6105H22.4773L22.0984 31.6333L21.7149 31.5694H21.336H20.9571L20.5781 31.6424L20.1947 31.6287L19.8157 31.6242L19.4368 31.5648L19.0533 31.5602L18.6744 31.5922L18.2955 31.6013L17.9165 31.6379L17.5376 31.6333L17.1541 31.5831L16.7752 31.6287L16.3963 31.6105L16.0128 31.6242L15.6339 31.5602L15.2504 31.5785L14.8715 31.5648L14.488 31.6379L14.1045 31.5648L13.721 31.6013L13.3329 31.6105Z" fill="#333333"/>
<path d="M39.022 22.7219L38.7436 22.9866L38.4788 23.2697L38.1957 23.5299L37.9127 23.7947L37.6342 24.0595L37.3603 24.3289L37.0863 24.5982L36.817 24.8767L36.5431 25.1506L36.26 25.42L35.977 25.6848L35.662 25.9222L35.315 26.1002L34.9361 26.2189L34.5434 26.2646L34.1554 26.2052L33.7765 26.1002L33.4249 25.9313L33.1191 25.6802L33.0506 25.6117L32.8177 25.3195L32.6397 24.9863L32.5484 24.6256L32.521 24.2512L32.5712 23.8769L32.699 23.5299L32.8634 23.1921L33.1236 22.9227L33.3838 22.6397L33.676 22.384L33.9408 22.1055L34.2147 21.8316L34.4932 21.5668L34.7671 21.2975L35.0502 21.0327L35.3332 20.7725L35.598 20.4894L35.8811 20.2246L36.1641 19.9598L36.4746 19.7133L36.8261 19.5352L37.205 19.412L37.5977 19.3983L37.9903 19.4165L38.3738 19.5215L38.7116 19.7224L39.0357 19.9507L39.2823 20.2474L39.4649 20.5898L39.5881 20.9596L39.6247 21.3431L39.5744 21.7266L39.4694 22.0964L39.2686 22.4297L39.0312 22.731L39.022 22.7219Z" fill="#333333"/>
</g>
<defs>
<clipPath id="clip0_547_6760">
<rect width="46.078" height="47.9954" fill="white" transform="translate(0.960754 0.968048)"/>
</clipPath>
</defs>
</svg>
